<svg width="1000" height="1000" viewBox="0 0 1000 1000" fill="none" xmlns="http://www.w3.org/2000/svg">
<path d="M698.625 473.233C705.136 461.916 708.563 449.089 708.563 436.033C708.563 422.977 705.136 410.149 698.625 398.832L685.706 376.447C677.737 362.639 673.541 346.978 673.537 331.036V305.188C673.516 292.131 670.068 279.309 663.539 268.002C657.01 256.695 647.628 247.299 636.33 240.754L613.944 227.835C600.143 219.852 588.679 208.385 580.7 194.582L567.781 172.206C561.233 160.909 551.835 151.528 540.526 144.999C529.217 138.47 516.393 135.023 503.334 135.001H477.496C461.544 134.995 445.873 130.799 432.053 122.832L409.677 109.914C398.358 103.403 385.528 99.9767 372.47 99.9767C359.412 99.9767 346.582 103.403 335.263 109.914L312.907 122.832C299.094 130.798 283.43 134.994 267.484 135.001H241.645C228.588 135.021 215.765 138.468 204.458 144.997C193.15 151.526 183.754 160.909 177.209 172.206L164.28 194.582C156.305 208.388 144.84 219.856 131.036 227.835L108.649 240.754C97.353 247.3 87.9724 256.696 81.4451 268.003C74.9177 279.31 71.4721 292.132 71.4526 305.188V331.036C71.444 346.977 67.2477 362.637 59.2838 376.447L46.3544 398.832C39.8437 410.149 36.4171 422.977 36.4171 436.033C36.4171 449.089 39.8437 461.916 46.3544 473.233L59.2838 495.619C67.2477 509.429 71.444 525.088 71.4526 541.03V566.838C71.4721 579.893 74.9177 592.715 81.4451 604.022C87.9724 615.33 97.353 624.726 108.649 631.272L131.036 644.191C144.84 652.169 156.305 663.637 164.28 677.444L177.209 699.819C183.753 711.118 193.148 720.502 204.456 727.031C215.764 733.56 228.588 737.006 241.645 737.025H267.484C283.43 737.031 299.094 741.228 312.907 749.193L335.283 762.112C346.602 768.622 359.432 772.049 372.49 772.049C385.548 772.049 398.378 768.622 409.697 762.112L432.053 749.233C445.863 741.268 461.523 737.072 477.466 737.065H503.304C516.363 737.045 529.188 733.598 540.497 727.069C551.806 720.54 561.204 711.158 567.751 699.859L580.67 677.484C588.649 663.68 600.113 652.214 613.914 644.231L636.3 631.312C647.609 624.767 657.001 615.366 663.536 604.051C670.071 592.736 673.52 579.904 673.537 566.838V541.03C673.541 525.088 677.737 509.427 685.706 495.619L698.625 473.233ZM384.859 508.958L424.828 378.618C425.186 377.389 425.811 376.255 426.659 375.296C427.131 374.842 427.692 374.493 428.308 374.27C428.923 374.048 429.579 373.958 430.232 374.005H441.24C441.892 373.958 442.548 374.048 443.163 374.27C443.779 374.493 444.341 374.842 444.812 375.296C445.65 376.258 446.275 377.387 446.643 378.608L486.432 508.908C486.639 509.651 486.75 510.418 486.762 511.189C486.794 512.277 486.44 513.34 485.762 514.191C485.483 514.588 485.115 514.913 484.688 515.141C484.26 515.369 483.784 515.493 483.3 515.502H475.084C474.514 515.543 473.942 515.444 473.419 515.214C472.896 514.984 472.437 514.629 472.082 514.181C471.549 513.493 471.134 512.723 470.851 511.9L462.975 486.482C462.705 485.611 462.163 484.849 461.428 484.309C460.693 483.768 459.805 483.478 458.892 483.48H412.619C411.708 483.479 410.821 483.769 410.087 484.31C409.354 484.85 408.814 485.612 408.546 486.482L400.67 511.9C400.486 512.753 400.083 513.543 399.499 514.191C399.123 514.637 398.647 514.988 398.11 515.215C397.572 515.443 396.989 515.541 396.407 515.502H388.191C387.707 515.493 387.231 515.369 386.804 515.141C386.376 514.913 386.008 514.588 385.73 514.191C385.052 513.34 384.697 512.277 384.729 511.189C384.728 510.444 384.772 509.698 384.859 508.958ZM271.197 432.105L305.742 375.866C306.573 374.517 307.736 373.403 309.12 372.631C310.504 371.858 312.063 371.452 313.647 371.452C315.232 371.452 316.791 371.858 318.175 372.631C319.559 373.403 320.722 374.517 321.553 375.866L356.168 432.205C357.848 434.942 358.762 438.08 358.813 441.292C358.864 444.503 358.051 447.669 356.458 450.458L322.164 510.499C321.363 511.917 320.199 513.097 318.793 513.918C317.386 514.739 315.787 515.172 314.158 515.172H314.108C312.487 515.18 310.893 514.759 309.487 513.953C308.081 513.146 306.913 511.982 306.102 510.579L270.997 450.538C269.351 447.737 268.5 444.541 268.535 441.294C268.57 438.046 269.491 434.869 271.197 432.105ZM175.758 460.505C174.785 460.507 173.852 460.895 173.164 461.583C172.476 462.271 172.088 463.204 172.085 464.177V510.589C172.129 511.842 171.741 513.072 170.984 514.071C170.63 514.526 170.173 514.89 169.652 515.135C169.13 515.38 168.558 515.499 167.982 515.482H159.446C158.876 515.507 158.31 515.39 157.796 515.142C157.283 514.894 156.839 514.523 156.504 514.061C155.805 513.042 155.454 511.824 155.503 510.589V387.184C155.509 383.69 156.899 380.341 159.369 377.871C161.84 375.401 165.189 374.01 168.683 374.005H200.386C208.391 374.005 215.397 375.646 221.211 378.868C227.156 382.188 231.938 387.253 234.911 393.378C238.133 399.763 239.774 407.828 239.774 417.395C239.774 426.961 238.133 434.977 234.911 441.271C231.912 447.36 227.125 452.388 221.191 455.681C215.336 458.913 208.321 460.545 200.366 460.545L175.758 460.505ZM598.973 441.231C595.975 447.32 591.188 452.348 585.254 455.641C579.389 458.873 572.384 460.505 564.429 460.505H539.841C538.868 460.507 537.935 460.895 537.247 461.583C536.559 462.271 536.171 463.204 536.168 464.177V510.589C536.212 511.842 535.824 513.072 535.067 514.071C534.712 514.525 534.256 514.889 533.734 515.134C533.213 515.379 532.641 515.498 532.065 515.482H523.529C522.958 515.506 522.39 515.388 521.875 515.141C521.361 514.893 520.915 514.522 520.577 514.061C519.876 513.043 519.525 511.824 519.576 510.589V387.184C519.581 383.696 520.968 380.351 523.432 377.882C525.896 375.412 529.237 374.018 532.726 374.005H564.429C572.434 374.005 579.439 375.646 585.254 378.868C591.206 382.185 595.995 387.25 598.973 393.378C602.196 399.763 603.827 407.828 603.827 417.395C603.827 426.961 602.176 434.927 598.973 441.231Z" fill="white"/>
<path d="M539.851 443.083H563.618C571.454 443.083 577.398 440.871 581.311 436.518C585.224 432.165 587.165 425.741 587.165 417.355C587.165 408.969 585.234 402.685 581.431 398.202C577.628 393.719 571.624 391.437 563.578 391.437H539.851C538.832 391.44 537.857 391.845 537.136 392.565C536.416 393.286 536.011 394.261 536.008 395.28V439.23C536.008 440.25 536.413 441.228 537.133 441.951C537.853 442.673 538.831 443.08 539.851 443.083Z" fill="white"/>
<path d="M199.535 391.437H175.768C174.75 391.44 173.774 391.845 173.054 392.565C172.333 393.286 171.928 394.261 171.925 395.28V439.23C171.925 440.25 172.33 441.228 173.05 441.951C173.77 442.673 174.748 443.08 175.768 443.083H199.535C207.361 443.083 213.315 440.871 217.228 436.518C221.141 432.165 223.132 425.701 223.132 417.355C223.132 409.009 221.201 402.685 217.388 398.202C213.575 393.719 207.581 391.437 199.535 391.437Z" fill="white"/>
<path d="M416.442 465.628H454.97C455.217 465.63 455.462 465.574 455.683 465.462C455.904 465.351 456.095 465.188 456.24 464.988C456.387 464.789 456.486 464.56 456.53 464.317C456.573 464.073 456.56 463.824 456.491 463.587L437.227 400.263C437.122 399.948 436.921 399.673 436.651 399.478C436.382 399.284 436.058 399.179 435.726 399.179C435.393 399.179 435.069 399.284 434.8 399.478C434.53 399.673 434.329 399.948 434.225 400.263L414.951 463.587C414.886 463.82 414.876 464.066 414.922 464.304C414.967 464.542 415.067 464.766 415.213 464.96C415.359 465.153 415.548 465.31 415.764 465.419C415.981 465.528 416.219 465.586 416.462 465.588L416.442 465.628Z" fill="white"/>
<path d="M712.846 390.616L699.926 368.241C693.386 356.931 689.935 344.1 689.919 331.036V305.188C689.894 289.249 685.685 273.596 677.714 259.794C669.743 245.991 658.289 234.522 644.496 226.534L622.19 213.595C610.879 207.065 601.485 197.675 594.951 186.366L582.031 163.981C574.04 150.189 562.569 138.736 548.764 130.767C534.959 122.798 519.305 118.592 503.365 118.57H477.496C464.431 118.551 451.601 115.1 440.289 108.563L417.913 95.6337C404.096 87.684 388.435 83.5 372.495 83.5C356.555 83.5 340.894 87.684 327.077 95.6337L304.691 108.563C293.38 115.101 280.549 118.551 267.484 118.57H241.645C225.706 118.592 210.051 122.798 196.246 130.767C182.441 138.736 170.97 150.189 162.979 163.981L150.059 186.376C143.527 197.68 134.136 207.067 122.83 213.595L100.454 226.524C86.6608 234.512 75.2065 245.981 67.2355 259.784C59.2646 273.586 55.0561 289.239 55.0307 305.178V331.026C55.015 344.09 51.5639 356.921 45.0235 368.231L32.1342 390.616C24.1841 404.432 20 420.093 20 436.033C20 451.972 24.1841 467.633 32.1342 481.449L45.0535 503.794C51.5939 515.104 55.045 527.935 55.0607 541V566.838C55.0894 582.777 59.2992 598.43 67.2697 612.234C75.2403 626.037 86.6928 637.508 100.484 645.502L122.83 658.461C134.141 664.99 143.535 674.381 150.069 685.689L162.989 708.075C171.101 722.083 182.801 733.675 196.883 741.658C198.805 742.749 200.766 743.759 202.757 744.66C214.896 750.428 228.166 753.426 241.605 753.436H267.444C280.509 753.454 293.34 756.905 304.651 763.443L327.077 776.382C334.125 780.445 341.688 783.538 349.563 785.578C351.705 786.138 353.867 786.579 356.038 787.009C361.321 787.978 366.679 788.477 372.05 788.5H372.46H373.741C379.115 788.424 384.473 787.878 389.752 786.869C391.914 786.449 394.066 785.958 396.207 785.378C403.799 783.329 411.092 780.302 417.903 776.372L440.279 763.443C451.59 756.906 464.421 753.455 477.486 753.436H503.324C517.045 753.424 530.584 750.301 542.923 744.3C544.925 743.299 546.926 742.298 548.787 741.197C562.564 733.231 574.012 721.794 581.991 708.025L594.911 685.639C601.465 674.346 610.873 664.974 622.19 658.461L644.566 645.542C658.361 637.545 669.814 626.067 677.78 612.255C685.746 598.443 689.946 582.782 689.959 566.838V541.03C689.975 527.965 693.426 515.134 699.966 503.824L712.886 481.449C720.83 467.63 725.007 451.967 725 436.027C724.993 420.088 720.802 404.429 712.846 390.616ZM673.537 566.838C673.516 579.894 670.068 592.716 663.539 604.023C657.01 615.33 647.628 624.726 636.331 631.272L613.944 644.191C600.143 652.174 588.68 663.64 580.7 677.444L567.781 699.819C561.234 711.118 551.837 720.5 540.527 727.029C529.218 733.558 516.393 737.005 503.334 737.025H477.496C461.54 737.039 445.868 741.249 432.053 749.233L409.667 762.152C398.348 768.662 385.518 772.089 372.46 772.089C359.402 772.089 346.572 768.662 335.253 762.152L312.877 749.233C299.064 741.268 283.4 737.071 267.454 737.065H241.645C228.588 737.046 215.764 733.6 204.456 727.071C193.148 720.542 183.753 711.158 177.209 699.859L164.28 677.484C156.305 663.677 144.84 652.209 131.036 644.231L108.649 631.312C97.3472 624.762 87.9628 615.36 81.4351 604.045C74.9074 592.73 71.4651 579.9 71.4526 566.838V541.03C71.444 525.088 67.2477 509.429 59.2838 495.619L46.3544 473.233C39.8437 461.916 36.4171 449.089 36.4171 436.033C36.4171 422.977 39.8437 410.149 46.3544 398.832L59.2838 376.447C67.2477 362.637 71.444 346.977 71.4526 331.036V305.188C71.4721 292.132 74.9177 279.31 81.4451 268.003C87.9725 256.696 97.353 247.3 108.649 240.754L131.036 227.835C144.84 219.856 156.305 208.388 164.28 194.582L177.209 172.206C183.754 160.909 193.15 151.526 204.458 144.997C215.765 138.468 228.588 135.021 241.645 135.001H267.484C283.43 134.994 299.094 130.798 312.907 122.832L335.283 109.914C346.602 103.403 359.432 99.9767 372.49 99.9767C385.548 99.9767 398.378 103.403 409.697 109.914L432.053 122.832C445.867 130.795 461.531 134.991 477.476 135.001H503.314C516.373 135.023 529.197 138.47 540.506 144.999C551.815 151.528 561.213 160.909 567.761 172.206L580.7 194.582C588.68 208.385 600.143 219.852 613.944 227.835L636.331 240.754C647.628 247.299 657.01 256.695 663.539 268.002C670.068 279.309 673.516 292.131 673.537 305.188V331.036C673.541 346.978 677.737 362.639 685.706 376.447L698.626 398.832C705.136 410.149 708.563 422.977 708.563 436.033C708.563 449.089 705.136 461.916 698.626 473.233L685.706 495.619C677.737 509.427 673.541 525.088 673.537 541.03V566.838Z" fill="#5C5AA0"/>
<path d="M221.171 455.641C227.113 452.351 231.907 447.323 234.911 441.231C238.133 434.937 239.774 426.901 239.774 417.355C239.774 407.808 238.133 399.763 234.911 393.338C231.932 387.21 227.143 382.145 221.191 378.828C215.336 375.606 208.321 373.965 200.366 373.965H168.643C165.149 373.97 161.8 375.361 159.329 377.831C156.859 380.301 155.469 383.65 155.463 387.144V510.589C155.414 511.824 155.765 513.042 156.464 514.061C156.799 514.523 157.243 514.894 157.756 515.142C158.27 515.39 158.836 515.507 159.406 515.482H167.942C168.518 515.499 169.09 515.38 169.612 515.135C170.133 514.89 170.59 514.526 170.944 514.071C171.701 513.072 172.089 511.842 172.045 510.589V464.177C172.048 463.204 172.436 462.271 173.124 461.583C173.812 460.895 174.745 460.507 175.718 460.505H200.306C208.301 460.505 215.316 458.873 221.171 455.641ZM223.172 417.355C223.172 425.701 221.171 432.155 217.268 436.518C213.365 440.881 207.401 443.083 199.575 443.083H175.768C174.748 443.08 173.77 442.673 173.05 441.951C172.33 441.228 171.925 440.25 171.925 439.23V395.28C171.928 394.261 172.333 393.286 173.054 392.565C173.774 391.845 174.75 391.44 175.768 391.437H199.535C207.541 391.437 213.595 393.709 217.388 398.202C221.181 402.695 223.132 409.129 223.132 417.355H223.172Z" fill="#5C5AA0"/>
<path d="M388.191 515.482H396.407C396.989 515.521 397.572 515.423 398.11 515.195C398.647 514.968 399.123 514.617 399.499 514.171C400.083 513.523 400.487 512.733 400.67 511.88L408.546 486.462C408.814 485.592 409.354 484.83 410.087 484.29C410.821 483.749 411.708 483.459 412.619 483.46H458.792C459.704 483.458 460.593 483.748 461.328 484.289C462.063 484.829 462.605 485.591 462.875 486.462L470.751 511.88C471.034 512.703 471.449 513.473 471.982 514.161C472.337 514.609 472.796 514.964 473.319 515.194C473.842 515.424 474.414 515.523 474.984 515.482H483.2C483.684 515.473 484.16 515.349 484.588 515.121C485.015 514.893 485.383 514.568 485.662 514.171C486.34 513.32 486.694 512.257 486.662 511.169C486.65 510.398 486.539 509.631 486.332 508.888L446.593 378.608C446.225 377.387 445.6 376.258 444.762 375.296C444.291 374.842 443.729 374.493 443.113 374.27C442.498 374.048 441.842 373.958 441.19 374.005H430.182C429.529 373.958 428.873 374.048 428.258 374.27C427.642 374.493 427.081 374.842 426.609 375.296C425.761 376.255 425.136 377.389 424.778 378.618L384.859 508.958C384.765 509.698 384.715 510.443 384.709 511.189C384.677 512.277 385.032 513.34 385.709 514.191C385.992 514.587 386.364 514.91 386.795 515.135C387.227 515.359 387.705 515.478 388.191 515.482ZM414.931 463.587L434.205 400.263C434.309 399.948 434.51 399.673 434.78 399.478C435.049 399.284 435.373 399.179 435.706 399.179C436.038 399.179 436.362 399.284 436.632 399.478C436.901 399.673 437.102 399.948 437.207 400.263L456.471 463.587C456.54 463.824 456.553 464.073 456.51 464.316C456.466 464.56 456.367 464.789 456.22 464.988C456.075 465.188 455.884 465.351 455.663 465.462C455.442 465.574 455.197 465.63 454.949 465.628H416.442C416.199 465.626 415.961 465.568 415.744 465.459C415.528 465.35 415.339 465.193 415.193 465C415.047 464.806 414.947 464.582 414.902 464.344C414.856 464.106 414.866 463.86 414.931 463.627V463.587Z" fill="#5C5AA0"/>
<path d="M306.102 510.549C306.913 511.952 308.081 513.116 309.487 513.923C310.893 514.729 312.487 515.15 314.108 515.142H314.158C315.787 515.142 317.386 514.709 318.793 513.888C320.199 513.067 321.363 511.887 322.164 510.469L356.458 450.428C358.051 447.639 358.864 444.473 358.813 441.262C358.762 438.05 357.848 434.912 356.168 432.175L321.553 375.836C320.722 374.487 319.559 373.373 318.175 372.601C316.791 371.828 315.232 371.422 313.647 371.422C312.063 371.422 310.504 371.828 309.12 372.601C307.736 373.373 306.573 374.487 305.742 375.836L271.197 432.075C269.496 434.835 268.579 438.007 268.544 441.249C268.509 444.49 269.357 447.681 270.997 450.478L306.102 510.549ZM316.109 400.073L341.127 440.741C341.387 441.179 341.524 441.678 341.524 442.187C341.524 442.696 341.387 443.195 341.127 443.633L316.439 486.843C316.191 487.273 315.833 487.63 315.403 487.878C314.973 488.126 314.485 488.257 313.988 488.257C313.491 488.257 313.003 488.126 312.572 487.878C312.142 487.63 311.785 487.273 311.536 486.843L286.258 443.623C285.995 443.183 285.856 442.68 285.856 442.167C285.856 441.654 285.995 441.151 286.258 440.711L311.276 400.053C311.534 399.651 311.89 399.321 312.31 399.093C312.73 398.865 313.2 398.746 313.678 398.748C314.156 398.75 314.625 398.873 315.043 399.104C315.461 399.336 315.814 399.669 316.069 400.073H316.109Z" fill="#5C5AA0"/>
<path d="M311.236 400.073L286.218 440.731C285.955 441.171 285.816 441.674 285.816 442.187C285.816 442.7 285.955 443.203 286.218 443.643L311.496 486.863C311.745 487.293 312.102 487.65 312.532 487.898C312.963 488.146 313.451 488.277 313.948 488.277C314.445 488.277 314.933 488.146 315.363 487.898C315.793 487.65 316.151 487.293 316.399 486.863L341.087 443.653C341.347 443.215 341.484 442.716 341.484 442.207C341.484 441.698 341.347 441.199 341.087 440.761L316.069 400.093C315.816 399.68 315.462 399.339 315.04 399.102C314.618 398.864 314.142 398.739 313.658 398.737C313.174 398.735 312.697 398.856 312.273 399.09C311.849 399.324 311.492 399.662 311.236 400.073Z" fill="white"/>
<path d="M585.254 378.868C579.389 375.646 572.384 374.005 564.429 374.005H532.726C529.232 374.01 525.883 375.401 523.412 377.871C520.942 380.341 519.551 383.69 519.546 387.184V510.589C519.495 511.824 519.846 513.043 520.547 514.061C520.885 514.522 521.331 514.893 521.845 515.141C522.36 515.389 522.928 515.506 523.499 515.482H532.035C532.611 515.498 533.183 515.379 533.704 515.134C534.226 514.889 534.682 514.525 535.037 514.071C535.794 513.072 536.182 511.842 536.138 510.589V464.177C536.141 463.204 536.529 462.271 537.217 461.583C537.905 460.895 538.838 460.507 539.811 460.505H564.399C572.404 460.505 579.409 458.873 585.224 455.641C591.158 452.348 595.945 447.32 598.944 441.231C602.166 434.927 603.797 426.891 603.797 417.355C603.797 407.818 602.166 399.763 598.944 393.338C595.967 387.229 591.189 382.179 585.254 378.868ZM536.008 395.28C536.011 394.261 536.416 393.286 537.137 392.565C537.857 391.845 538.832 391.44 539.851 391.437H563.618C571.624 391.437 577.628 393.709 581.471 398.202C585.314 402.695 587.165 409.129 587.165 417.355C587.165 425.581 585.164 432.155 581.271 436.518C577.378 440.881 571.414 443.083 563.578 443.083H539.851C538.831 443.08 537.853 442.673 537.133 441.951C536.413 441.228 536.008 440.25 536.008 439.23V395.28Z" fill="#5C5AA0"/>
<mask id="mask0_4_167" style="mask-type:alpha" maskUnits="userSpaceOnUse" x="36" y="99" width="673" height="674">
<path d="M698.625 473.233C705.136 461.916 708.563 449.089 708.563 436.033C708.563 422.977 705.136 410.149 698.625 398.832L685.706 376.447C677.737 362.639 673.541 346.978 673.537 331.036V305.188C673.516 292.131 670.068 279.309 663.539 268.002C657.01 256.695 647.628 247.299 636.33 240.754L613.944 227.835C600.143 219.852 588.679 208.385 580.7 194.582L567.781 172.206C561.233 160.909 551.835 151.528 540.526 144.999C529.217 138.47 516.393 135.023 503.334 135.001H477.496C461.544 134.995 445.873 130.799 432.053 122.832L409.677 109.914C398.358 103.403 385.528 99.9768 372.47 99.9768C359.412 99.9768 346.582 103.403 335.263 109.914L312.907 122.832C299.093 130.798 283.43 134.994 267.484 135.001H241.645C228.588 135.021 215.765 138.468 204.458 144.997C193.15 151.526 183.754 160.909 177.209 172.206L164.28 194.582C156.305 208.389 144.84 219.856 131.036 227.835L108.649 240.754C97.353 247.3 87.9724 256.696 81.4451 268.003C74.9177 279.31 71.4721 292.132 71.4525 305.188V331.036C71.4439 346.977 67.2476 362.637 59.2838 376.447L46.3544 398.832C39.8437 410.149 36.4171 422.977 36.4171 436.033C36.4171 449.089 39.8437 461.916 46.3544 473.233L59.2838 495.619C67.2476 509.429 71.4439 525.088 71.4525 541.03V566.838C71.4721 579.893 74.9177 592.715 81.4451 604.023C87.9724 615.33 97.353 624.726 108.649 631.272L131.036 644.191C144.84 652.169 156.305 663.637 164.28 677.444L177.209 699.819C183.753 711.118 193.148 720.502 204.456 727.031C215.764 733.56 228.588 737.006 241.645 737.025H267.484C283.43 737.031 299.093 741.228 312.907 749.193L335.283 762.112C346.602 768.622 359.432 772.049 372.49 772.049C385.548 772.049 398.378 768.622 409.697 762.112L432.053 749.233C445.863 741.268 461.523 737.072 477.466 737.065H503.304C516.363 737.045 529.188 733.598 540.497 727.069C551.806 720.54 561.204 711.158 567.751 699.859L580.67 677.484C588.649 663.68 600.113 652.214 613.914 644.231L636.3 631.312C647.609 624.767 657.001 615.366 663.536 604.051C670.071 592.736 673.52 579.904 673.537 566.838V541.03C673.541 525.088 677.737 509.427 685.706 495.619L698.625 473.233ZM384.859 508.958L424.828 378.618C425.186 377.389 425.811 376.255 426.659 375.296C427.131 374.842 427.692 374.493 428.308 374.27C428.923 374.048 429.579 373.958 430.232 374.005H441.24C441.892 373.958 442.548 374.048 443.163 374.27C443.779 374.493 444.341 374.842 444.812 375.296C445.65 376.258 446.275 377.387 446.643 378.608L486.432 508.908C486.639 509.651 486.75 510.418 486.762 511.189C486.794 512.277 486.44 513.34 485.762 514.191C485.483 514.588 485.115 514.914 484.688 515.141C484.26 515.369 483.784 515.493 483.3 515.502H475.084C474.514 515.543 473.942 515.444 473.419 515.214C472.896 514.984 472.437 514.629 472.082 514.181C471.549 513.493 471.134 512.723 470.851 511.9L462.975 486.482C462.705 485.611 462.163 484.849 461.428 484.309C460.693 483.768 459.805 483.478 458.892 483.48H412.619C411.708 483.479 410.821 483.769 410.087 484.31C409.354 484.85 408.814 485.612 408.546 486.482L400.67 511.9C400.486 512.753 400.083 513.543 399.499 514.191C399.123 514.637 398.647 514.988 398.11 515.215C397.572 515.443 396.989 515.541 396.407 515.502H388.191C387.707 515.493 387.231 515.369 386.804 515.141C386.376 514.914 386.008 514.588 385.729 514.191C385.052 513.34 384.697 512.277 384.729 511.189C384.728 510.444 384.772 509.698 384.859 508.958ZM271.197 432.105L305.742 375.866C306.573 374.517 307.736 373.403 309.12 372.631C310.504 371.858 312.063 371.452 313.647 371.452C315.232 371.452 316.791 371.858 318.175 372.631C319.558 373.403 320.722 374.517 321.553 375.866L356.168 432.205C357.848 434.942 358.762 438.08 358.813 441.292C358.864 444.503 358.051 447.669 356.458 450.458L322.164 510.499C321.363 511.917 320.199 513.097 318.793 513.918C317.386 514.739 315.787 515.172 314.158 515.172H314.108C312.487 515.18 310.893 514.759 309.487 513.953C308.081 513.146 306.913 511.982 306.102 510.579L270.997 450.538C269.351 447.737 268.5 444.541 268.535 441.294C268.57 438.046 269.491 434.869 271.197 432.105ZM175.758 460.505C174.785 460.507 173.852 460.895 173.164 461.583C172.476 462.271 172.088 463.204 172.085 464.177V510.589C172.129 511.842 171.741 513.072 170.984 514.071C170.63 514.526 170.173 514.89 169.652 515.135C169.13 515.38 168.558 515.499 167.982 515.482H159.446C158.876 515.507 158.31 515.39 157.796 515.142C157.283 514.894 156.839 514.523 156.504 514.061C155.805 513.042 155.454 511.824 155.503 510.589V387.184C155.509 383.69 156.899 380.341 159.369 377.871C161.84 375.401 165.189 374.01 168.683 374.005H200.386C208.391 374.005 215.396 375.646 221.211 378.868C227.156 382.188 231.938 387.253 234.911 393.378C238.133 399.763 239.774 407.828 239.774 417.395C239.774 426.962 238.133 434.977 234.911 441.271C231.912 447.36 227.125 452.388 221.191 455.681C215.336 458.913 208.321 460.545 200.366 460.545L175.758 460.505ZM598.973 441.231C595.975 447.32 591.188 452.348 585.254 455.641C579.389 458.873 572.384 460.505 564.429 460.505H539.841C538.868 460.507 537.935 460.895 537.247 461.583C536.559 462.271 536.171 463.204 536.168 464.177V510.589C536.212 511.842 535.824 513.072 535.067 514.071C534.712 514.525 534.255 514.889 533.734 515.134C533.213 515.379 532.641 515.498 532.065 515.482H523.529C522.958 515.506 522.39 515.388 521.875 515.141C521.361 514.893 520.915 514.522 520.577 514.061C519.876 513.043 519.525 511.824 519.576 510.589V387.184C519.581 383.696 520.968 380.351 523.432 377.882C525.896 375.412 529.237 374.018 532.726 374.005H564.429C572.434 374.005 579.439 375.646 585.254 378.868C591.206 382.185 595.995 387.25 598.973 393.378C602.196 399.763 603.827 407.828 603.827 417.395C603.827 426.962 602.176 434.927 598.973 441.231Z" fill="white"/>
</mask>
<g mask="url(#mask0_4_167)">
<path d="M351.458 341.546C353.716 345.45 356.965 348.689 360.877 350.933C364.789 353.178 369.225 354.349 373.735 354.327H373.874C378.406 354.326 382.857 353.122 386.771 350.837C390.685 348.552 393.922 345.269 396.151 341.323L491.58 174.252C496.011 166.491 498.274 157.682 498.132 148.746C497.99 139.811 495.448 131.078 490.773 123.462L394.453 -33.3065C392.139 -37.0607 388.902 -40.1603 385.052 -42.3102C381.201 -44.46 376.864 -45.5887 372.454 -45.5887C368.044 -45.5887 363.707 -44.46 359.857 -42.3102C356.006 -40.1603 352.77 -37.0607 350.456 -33.3065L254.331 123.184C249.599 130.865 247.048 139.689 246.949 148.71C246.851 157.731 249.21 166.609 253.774 174.391L351.458 341.546ZM379.304 34.1346L448.92 147.298C449.643 148.515 450.025 149.905 450.025 151.321C450.025 152.737 449.643 154.127 448.92 155.345L380.223 275.581C379.531 276.777 378.537 277.771 377.339 278.462C376.142 279.153 374.783 279.517 373.401 279.517C372.018 279.517 370.66 279.153 369.463 278.462C368.265 277.771 367.271 276.777 366.579 275.581L296.239 155.317C295.508 154.092 295.122 152.692 295.122 151.266C295.122 149.839 295.508 148.439 296.239 147.214L365.855 34.0789C366.574 32.9607 367.563 32.0419 368.732 31.4074C369.9 30.7729 371.21 30.4431 372.539 30.4487C373.869 30.4542 375.175 30.7949 376.338 31.4392C377.501 32.0834 378.483 33.0105 379.193 34.1346H379.304Z" fill="#5C5AA0"/>
<path d="M365.743 34.1346L296.128 147.27C295.397 148.495 295.011 149.895 295.011 151.321C295.011 152.748 295.397 154.148 296.128 155.373L366.467 275.636C367.159 276.833 368.154 277.827 369.351 278.518C370.549 279.209 371.907 279.572 373.29 279.572C374.672 279.572 376.03 279.209 377.228 278.518C378.425 277.827 379.42 276.833 380.112 275.636L448.808 155.401C449.532 154.183 449.913 152.793 449.913 151.377C449.913 149.961 449.532 148.571 448.808 147.353L379.193 34.1903C378.489 33.0417 377.503 32.0921 376.329 31.4315C375.154 30.7709 373.831 30.4213 372.484 30.4157C371.136 30.4101 369.81 30.7488 368.63 31.3996C367.451 32.0505 366.457 32.9919 365.743 34.1346Z" fill="white"/>
<rect x="244.162" y="-45.5887" width="256.185" height="200.486" fill="white"/>
</g>
<path d="M826.625 537.233C833.136 525.916 836.563 513.089 836.563 500.033C836.563 486.977 833.136 474.149 826.625 462.832L813.706 440.447C805.737 426.639 801.541 410.978 801.537 395.036V369.188C801.516 356.131 798.068 343.309 791.539 332.002C785.01 320.695 775.628 311.299 764.33 304.754L741.944 291.835C728.143 283.852 716.679 272.385 708.7 258.582L695.781 236.206C689.233 224.909 679.835 215.528 668.526 208.999C657.217 202.47 644.393 199.023 631.334 199.001H605.496C589.544 198.995 573.873 194.799 560.053 186.832L537.677 173.914C526.358 167.403 513.528 163.977 500.47 163.977C487.412 163.977 474.582 167.403 463.263 173.914L440.907 186.832C427.094 194.798 411.43 198.994 395.484 199.001H369.645C356.588 199.021 343.765 202.468 332.458 208.997C321.15 215.526 311.754 224.909 305.209 236.206L292.28 258.582C284.305 272.388 272.84 283.856 259.036 291.835L236.649 304.754C225.353 311.3 215.972 320.696 209.445 332.003C202.918 343.31 199.472 356.132 199.453 369.188V395.036C199.444 410.977 195.248 426.637 187.284 440.447L174.354 462.832C167.844 474.149 164.417 486.977 164.417 500.033C164.417 513.089 167.844 525.916 174.354 537.233L187.284 559.619C195.248 573.429 199.444 589.088 199.453 605.03V630.838C199.472 643.893 202.918 656.715 209.445 668.022C215.972 679.33 225.353 688.726 236.649 695.272L259.036 708.191C272.84 716.169 284.305 727.637 292.28 741.444L305.209 763.819C311.753 775.118 321.148 784.502 332.456 791.031C343.764 797.56 356.588 801.006 369.645 801.025H395.484C411.43 801.031 427.094 805.228 440.907 813.193L463.283 826.112C474.602 832.622 487.432 836.049 500.49 836.049C513.548 836.049 526.378 832.622 537.697 826.112L560.053 813.233C573.863 805.268 589.523 801.072 605.466 801.065H631.304C644.363 801.045 657.188 797.598 668.497 791.069C679.806 784.54 689.204 775.158 695.751 763.859L708.67 741.484C716.649 727.68 728.113 716.214 741.914 708.231L764.3 695.312C775.609 688.767 785.001 679.366 791.536 668.051C798.071 656.736 801.52 643.904 801.537 630.838V605.03C801.541 589.088 805.737 573.427 813.706 559.619L826.625 537.233ZM512.859 572.958L552.828 442.618C553.186 441.389 553.811 440.255 554.659 439.296C555.131 438.842 555.692 438.493 556.308 438.27C556.923 438.048 557.579 437.958 558.232 438.005H569.24C569.892 437.958 570.548 438.048 571.163 438.27C571.779 438.493 572.341 438.842 572.812 439.296C573.65 440.258 574.275 441.387 574.643 442.608L614.432 572.908C614.639 573.651 614.75 574.418 614.762 575.189C614.794 576.277 614.44 577.34 613.762 578.191C613.483 578.588 613.115 578.913 612.688 579.141C612.26 579.369 611.784 579.493 611.3 579.502H603.084C602.514 579.543 601.942 579.444 601.419 579.214C600.896 578.984 600.437 578.629 600.082 578.181C599.549 577.493 599.134 576.723 598.851 575.9L590.975 550.482C590.705 549.611 590.163 548.849 589.428 548.309C588.693 547.768 587.805 547.478 586.892 547.48H540.619C539.708 547.479 538.821 547.769 538.087 548.31C537.354 548.85 536.814 549.612 536.546 550.482L528.67 575.9C528.486 576.753 528.083 577.543 527.499 578.191C527.123 578.637 526.647 578.988 526.11 579.215C525.572 579.443 524.989 579.541 524.407 579.502H516.191C515.707 579.493 515.231 579.369 514.804 579.141C514.376 578.913 514.008 578.588 513.73 578.191C513.052 577.34 512.697 576.277 512.729 575.189C512.728 574.444 512.772 573.698 512.859 572.958ZM399.197 496.105L433.742 439.866C434.573 438.517 435.736 437.403 437.12 436.631C438.504 435.858 440.063 435.452 441.647 435.452C443.232 435.452 444.791 435.858 446.175 436.631C447.559 437.403 448.722 438.517 449.553 439.866L484.168 496.205C485.848 498.942 486.762 502.08 486.813 505.292C486.864 508.503 486.051 511.669 484.458 514.458L450.164 574.499C449.363 575.917 448.199 577.097 446.793 577.918C445.386 578.739 443.787 579.172 442.158 579.172H442.108C440.487 579.18 438.893 578.759 437.487 577.953C436.081 577.146 434.913 575.982 434.102 574.579L398.997 514.538C397.351 511.737 396.5 508.541 396.535 505.294C396.57 502.046 397.491 498.869 399.197 496.105ZM303.758 524.505C302.785 524.507 301.852 524.895 301.164 525.583C300.476 526.271 300.088 527.204 300.085 528.177V574.589C300.129 575.842 299.741 577.072 298.984 578.071C298.63 578.526 298.173 578.89 297.652 579.135C297.13 579.38 296.558 579.499 295.982 579.482H287.446C286.876 579.507 286.31 579.39 285.796 579.142C285.283 578.894 284.839 578.523 284.504 578.061C283.805 577.042 283.454 575.824 283.503 574.589V451.184C283.509 447.69 284.899 444.341 287.369 441.871C289.84 439.401 293.189 438.01 296.683 438.005H328.386C336.391 438.005 343.397 439.646 349.211 442.868C355.156 446.188 359.938 451.253 362.911 457.378C366.133 463.763 367.774 471.828 367.774 481.395C367.774 490.961 366.133 498.977 362.911 505.271C359.912 511.36 355.125 516.388 349.191 519.681C343.336 522.913 336.321 524.545 328.366 524.545L303.758 524.505ZM726.973 505.231C723.975 511.32 719.188 516.348 713.254 519.641C707.389 522.873 700.384 524.505 692.429 524.505H667.841C666.868 524.507 665.935 524.895 665.247 525.583C664.559 526.271 664.171 527.204 664.168 528.177V574.589C664.212 575.842 663.824 577.072 663.067 578.071C662.712 578.525 662.256 578.889 661.734 579.134C661.213 579.379 660.641 579.498 660.065 579.482H651.529C650.958 579.506 650.39 579.388 649.875 579.141C649.361 578.893 648.915 578.522 648.577 578.061C647.876 577.043 647.525 575.824 647.576 574.589V451.184C647.581 447.696 648.968 444.351 651.432 441.882C653.896 439.412 657.237 438.018 660.726 438.005H692.429C700.434 438.005 707.439 439.646 713.254 442.868C719.206 446.185 723.995 451.25 726.973 457.378C730.196 463.763 731.827 471.828 731.827 481.395C731.827 490.961 730.176 498.927 726.973 505.231Z" fill="white"/>
<path d="M667.851 507.083H691.618C699.454 507.083 705.398 504.871 709.311 500.518C713.224 496.165 715.165 489.741 715.165 481.355C715.165 472.969 713.234 466.685 709.431 462.202C705.628 457.719 699.624 455.437 691.578 455.437H667.851C666.832 455.44 665.857 455.845 665.136 456.565C664.416 457.286 664.011 458.261 664.008 459.28V503.23C664.008 504.25 664.413 505.228 665.133 505.951C665.853 506.673 666.831 507.08 667.851 507.083Z" fill="white"/>
<path d="M327.535 455.437H303.768C302.75 455.44 301.774 455.845 301.054 456.565C300.333 457.286 299.928 458.261 299.925 459.28V503.23C299.925 504.25 300.33 505.228 301.05 505.951C301.77 506.673 302.748 507.08 303.768 507.083H327.535C335.361 507.083 341.315 504.871 345.228 500.518C349.141 496.165 351.132 489.701 351.132 481.355C351.132 473.009 349.201 466.685 345.388 462.202C341.575 457.719 335.581 455.437 327.535 455.437Z" fill="white"/>
<path d="M544.442 529.628H582.97C583.217 529.63 583.462 529.574 583.683 529.462C583.904 529.351 584.095 529.188 584.24 528.988C584.387 528.789 584.486 528.56 584.53 528.317C584.573 528.073 584.56 527.824 584.491 527.587L565.227 464.263C565.122 463.948 564.921 463.673 564.651 463.478C564.382 463.284 564.058 463.179 563.726 463.179C563.393 463.179 563.069 463.284 562.8 463.478C562.53 463.673 562.329 463.948 562.224 464.263L542.951 527.587C542.886 527.82 542.876 528.066 542.922 528.304C542.967 528.542 543.067 528.766 543.213 528.96C543.359 529.153 543.548 529.31 543.764 529.419C543.981 529.528 544.219 529.586 544.462 529.588L544.442 529.628Z" fill="white"/>
<path d="M840.846 454.616L827.926 432.241C821.386 420.931 817.935 408.1 817.919 395.036V369.188C817.894 353.249 813.685 337.596 805.714 323.794C797.743 309.991 786.289 298.522 772.496 290.534L750.19 277.595C738.879 271.065 729.485 261.675 722.951 250.366L710.031 227.981C702.04 214.189 690.569 202.736 676.764 194.767C662.959 186.798 647.305 182.592 631.365 182.57H605.496C592.431 182.551 579.601 179.1 568.289 172.563L545.913 159.634C532.096 151.684 516.435 147.5 500.495 147.5C484.555 147.5 468.894 151.684 455.077 159.634L432.691 172.563C421.38 179.101 408.549 182.551 395.484 182.57H369.645C353.706 182.592 338.051 186.798 324.246 194.767C310.441 202.736 298.97 214.189 290.979 227.981L278.059 250.376C271.527 261.68 262.136 271.067 250.83 277.595L228.454 290.524C214.661 298.512 203.207 309.981 195.236 323.784C187.265 337.586 183.056 353.239 183.031 369.178V395.026C183.015 408.09 179.564 420.921 173.023 432.231L160.134 454.616C152.184 468.432 148 484.093 148 500.033C148 515.972 152.184 531.633 160.134 545.449L173.053 567.794C179.594 579.104 183.045 591.935 183.061 605V630.838C183.089 646.777 187.299 662.43 195.27 676.234C203.24 690.037 214.693 701.508 228.484 709.502L250.83 722.461C262.141 728.99 271.535 738.381 278.069 749.689L290.989 772.075C299.101 786.083 310.801 797.675 324.883 805.658C326.805 806.749 328.766 807.759 330.757 808.66C342.896 814.428 356.166 817.426 369.605 817.436H395.444C408.509 817.454 421.34 820.905 432.651 827.443L455.077 840.382C462.125 844.445 469.688 847.538 477.563 849.578C479.705 850.138 481.867 850.579 484.038 851.009C489.321 851.978 494.679 852.477 500.05 852.5H500.46H501.741C507.115 852.424 512.473 851.878 517.752 850.869C519.914 850.449 522.066 849.958 524.207 849.378C531.799 847.329 539.092 844.302 545.903 840.372L568.279 827.443C579.59 820.906 592.421 817.455 605.486 817.436H631.324C645.045 817.424 658.584 814.301 670.923 808.3C672.925 807.299 674.926 806.298 676.787 805.197C690.564 797.231 702.012 785.794 709.991 772.025L722.911 749.639C729.465 738.346 738.873 728.974 750.19 722.461L772.566 709.542C786.361 701.545 797.814 690.067 805.78 676.255C813.746 662.443 817.946 646.782 817.959 630.838V605.03C817.975 591.965 821.426 579.134 827.966 567.824L840.886 545.449C848.83 531.63 853.007 515.967 853 500.027C852.993 484.088 848.802 468.429 840.846 454.616ZM801.537 630.838C801.516 643.894 798.068 656.716 791.539 668.023C785.01 679.33 775.628 688.726 764.331 695.272L741.944 708.191C728.143 716.174 716.68 727.64 708.7 741.444L695.781 763.819C689.234 775.118 679.837 784.5 668.527 791.029C657.218 797.558 644.393 801.005 631.334 801.025H605.496C589.54 801.039 573.868 805.249 560.053 813.233L537.667 826.152C526.348 832.662 513.518 836.089 500.46 836.089C487.402 836.089 474.572 832.662 463.253 826.152L440.877 813.233C427.064 805.268 411.4 801.071 395.454 801.065H369.645C356.588 801.046 343.764 797.6 332.456 791.071C321.148 784.542 311.753 775.158 305.209 763.859L292.28 741.484C284.305 727.677 272.84 716.209 259.036 708.231L236.649 695.312C225.347 688.762 215.963 679.36 209.435 668.045C202.907 656.73 199.465 643.9 199.453 630.838V605.03C199.444 589.088 195.248 573.429 187.284 559.619L174.354 537.233C167.844 525.916 164.417 513.089 164.417 500.033C164.417 486.977 167.844 474.149 174.354 462.832L187.284 440.447C195.248 426.637 199.444 410.977 199.453 395.036V369.188C199.472 356.132 202.918 343.31 209.445 332.003C215.972 320.696 225.353 311.3 236.649 304.754L259.036 291.835C272.84 283.856 284.305 272.388 292.28 258.582L305.209 236.206C311.754 224.909 321.15 215.526 332.458 208.997C343.765 202.468 356.588 199.021 369.645 199.001H395.484C411.43 198.994 427.094 194.798 440.907 186.832L463.283 173.914C474.602 167.403 487.432 163.977 500.49 163.977C513.548 163.977 526.378 167.403 537.697 173.914L560.053 186.832C573.867 194.795 589.531 198.991 605.476 199.001H631.314C644.373 199.023 657.197 202.47 668.506 208.999C679.815 215.528 689.213 224.909 695.761 236.206L708.7 258.582C716.68 272.385 728.143 283.852 741.944 291.835L764.331 304.754C775.628 311.299 785.01 320.695 791.539 332.002C798.068 343.309 801.516 356.131 801.537 369.188V395.036C801.541 410.978 805.737 426.639 813.706 440.447L826.626 462.832C833.136 474.149 836.563 486.977 836.563 500.033C836.563 513.089 833.136 525.916 826.626 537.233L813.706 559.619C805.737 573.427 801.541 589.088 801.537 605.03V630.838Z" fill="#5C5AA0"/>
<path d="M349.171 519.641C355.113 516.351 359.907 511.323 362.911 505.231C366.133 498.937 367.774 490.901 367.774 481.355C367.774 471.808 366.133 463.763 362.911 457.338C359.932 451.21 355.143 446.145 349.191 442.828C343.336 439.606 336.321 437.965 328.366 437.965H296.643C293.149 437.97 289.8 439.361 287.329 441.831C284.859 444.301 283.468 447.65 283.463 451.144V574.589C283.414 575.824 283.765 577.042 284.464 578.061C284.799 578.523 285.243 578.894 285.756 579.142C286.27 579.39 286.836 579.507 287.406 579.482H295.942C296.518 579.499 297.09 579.38 297.612 579.135C298.133 578.89 298.59 578.526 298.944 578.071C299.701 577.072 300.089 575.842 300.045 574.589V528.177C300.048 527.204 300.436 526.271 301.124 525.583C301.812 524.895 302.745 524.507 303.718 524.505H328.306C336.301 524.505 343.316 522.873 349.171 519.641ZM351.172 481.355C351.172 489.701 349.171 496.155 345.268 500.518C341.365 504.881 335.401 507.083 327.575 507.083H303.768C302.748 507.08 301.77 506.673 301.05 505.951C300.33 505.228 299.925 504.25 299.925 503.23V459.28C299.928 458.261 300.333 457.286 301.054 456.565C301.774 455.845 302.75 455.44 303.768 455.437H327.535C335.541 455.437 341.595 457.709 345.388 462.202C349.181 466.695 351.132 473.129 351.132 481.355H351.172Z" fill="#5C5AA0"/>
<path d="M516.191 579.482H524.407C524.989 579.521 525.572 579.423 526.11 579.195C526.647 578.968 527.123 578.617 527.499 578.171C528.083 577.523 528.486 576.733 528.67 575.88L536.546 550.462C536.814 549.592 537.354 548.83 538.087 548.29C538.821 547.749 539.708 547.459 540.619 547.46H586.792C587.704 547.458 588.593 547.748 589.328 548.289C590.063 548.829 590.605 549.591 590.875 550.462L598.751 575.88C599.033 576.703 599.449 577.473 599.982 578.161C600.337 578.609 600.796 578.964 601.319 579.194C601.842 579.424 602.414 579.523 602.984 579.482H611.2C611.684 579.473 612.16 579.349 612.588 579.121C613.015 578.893 613.383 578.568 613.662 578.171C614.34 577.32 614.694 576.257 614.662 575.169C614.65 574.398 614.539 573.631 614.332 572.888L574.593 442.608C574.225 441.387 573.6 440.258 572.762 439.296C572.291 438.842 571.729 438.493 571.113 438.27C570.498 438.048 569.842 437.958 569.19 438.005H558.182C557.529 437.958 556.873 438.048 556.258 438.27C555.642 438.493 555.081 438.842 554.609 439.296C553.761 440.255 553.136 441.389 552.778 442.618L512.859 572.958C512.765 573.698 512.715 574.443 512.709 575.189C512.677 576.277 513.032 577.34 513.709 578.191C513.992 578.587 514.364 578.91 514.795 579.135C515.227 579.359 515.705 579.478 516.191 579.482ZM542.931 527.587L562.205 464.263C562.309 463.948 562.51 463.673 562.78 463.478C563.049 463.284 563.373 463.179 563.706 463.179C564.038 463.179 564.362 463.284 564.631 463.478C564.901 463.673 565.102 463.948 565.207 464.263L584.471 527.587C584.54 527.824 584.553 528.073 584.51 528.316C584.466 528.56 584.367 528.789 584.22 528.988C584.075 529.188 583.884 529.351 583.663 529.462C583.442 529.574 583.197 529.63 582.949 529.628H544.442C544.199 529.626 543.961 529.568 543.744 529.459C543.528 529.35 543.339 529.193 543.193 529C543.047 528.806 542.947 528.582 542.902 528.344C542.856 528.106 542.866 527.86 542.931 527.627V527.587Z" fill="#5C5AA0"/>
<path d="M434.102 574.549C434.913 575.952 436.081 577.116 437.487 577.923C438.893 578.729 440.487 579.15 442.108 579.142H442.158C443.787 579.142 445.386 578.709 446.793 577.888C448.199 577.067 449.363 575.887 450.164 574.469L484.458 514.428C486.051 511.639 486.864 508.473 486.813 505.262C486.762 502.05 485.848 498.912 484.168 496.175L449.553 439.836C448.722 438.487 447.559 437.373 446.175 436.601C444.791 435.828 443.232 435.422 441.647 435.422C440.063 435.422 438.504 435.828 437.12 436.601C435.736 437.373 434.573 438.487 433.742 439.836L399.197 496.075C397.496 498.835 396.579 502.007 396.544 505.249C396.509 508.49 397.357 511.681 398.997 514.478L434.102 574.549ZM444.109 464.073L469.127 504.741C469.387 505.179 469.524 505.678 469.524 506.187C469.524 506.696 469.387 507.195 469.127 507.633L444.439 550.843C444.191 551.273 443.833 551.63 443.403 551.878C442.973 552.126 442.485 552.257 441.988 552.257C441.491 552.257 441.003 552.126 440.572 551.878C440.142 551.63 439.785 551.273 439.536 550.843L414.258 507.623C413.995 507.183 413.856 506.68 413.856 506.167C413.856 505.654 413.995 505.151 414.258 504.711L439.276 464.053C439.534 463.651 439.89 463.321 440.31 463.093C440.73 462.865 441.2 462.746 441.678 462.748C442.156 462.75 442.625 462.873 443.043 463.104C443.461 463.336 443.814 463.669 444.069 464.073H444.109Z" fill="#5C5AA0"/>
<path d="M439.236 464.073L414.218 504.731C413.955 505.171 413.816 505.674 413.816 506.187C413.816 506.7 413.955 507.203 414.218 507.643L439.496 550.863C439.745 551.293 440.102 551.65 440.532 551.898C440.963 552.146 441.451 552.277 441.948 552.277C442.445 552.277 442.933 552.146 443.363 551.898C443.793 551.65 444.151 551.293 444.399 550.863L469.087 507.653C469.347 507.215 469.484 506.716 469.484 506.207C469.484 505.698 469.347 505.199 469.087 504.761L444.069 464.093C443.816 463.68 443.462 463.339 443.04 463.102C442.618 462.864 442.142 462.739 441.658 462.737C441.174 462.735 440.697 462.856 440.273 463.09C439.849 463.324 439.492 463.662 439.236 464.073Z" fill="white"/>
<path d="M713.254 442.868C707.389 439.646 700.384 438.005 692.429 438.005H660.726C657.232 438.01 653.883 439.401 651.412 441.871C648.942 444.341 647.551 447.69 647.546 451.184V574.589C647.495 575.824 647.846 577.043 648.547 578.061C648.885 578.522 649.331 578.893 649.845 579.141C650.36 579.389 650.928 579.506 651.499 579.482H660.035C660.611 579.498 661.183 579.379 661.704 579.134C662.226 578.889 662.682 578.525 663.037 578.071C663.794 577.072 664.182 575.842 664.138 574.589V528.177C664.141 527.204 664.529 526.271 665.217 525.583C665.905 524.895 666.838 524.507 667.811 524.505H692.399C700.404 524.505 707.409 522.873 713.224 519.641C719.158 516.348 723.945 511.32 726.944 505.231C730.166 498.927 731.797 490.891 731.797 481.355C731.797 471.818 730.166 463.763 726.944 457.338C723.967 451.229 719.189 446.179 713.254 442.868ZM664.008 459.28C664.011 458.261 664.416 457.286 665.137 456.565C665.857 455.845 666.832 455.44 667.851 455.437H691.618C699.624 455.437 705.628 457.709 709.471 462.202C713.314 466.695 715.165 473.129 715.165 481.355C715.165 489.581 713.164 496.155 709.271 500.518C705.378 504.881 699.414 507.083 691.578 507.083H667.851C666.831 507.08 665.853 506.673 665.133 505.951C664.413 505.228 664.008 504.25 664.008 503.23V459.28Z" fill="#5C5AA0"/>
<mask id="mask1_4_167" style="mask-type:alpha" maskUnits="userSpaceOnUse" x="164" y="163" width="673" height="674">
<path d="M826.625 537.233C833.136 525.916 836.563 513.089 836.563 500.033C836.563 486.977 833.136 474.149 826.625 462.832L813.706 440.447C805.737 426.639 801.541 410.978 801.537 395.036V369.188C801.516 356.131 798.068 343.309 791.539 332.002C785.01 320.695 775.628 311.299 764.33 304.754L741.944 291.835C728.143 283.852 716.679 272.385 708.7 258.582L695.781 236.206C689.233 224.909 679.835 215.528 668.526 208.999C657.217 202.47 644.393 199.023 631.334 199.001H605.496C589.544 198.995 573.873 194.799 560.053 186.832L537.677 173.914C526.358 167.403 513.528 163.977 500.47 163.977C487.412 163.977 474.582 167.403 463.263 173.914L440.907 186.832C427.093 194.798 411.43 198.994 395.484 199.001H369.645C356.588 199.021 343.765 202.468 332.458 208.997C321.15 215.526 311.754 224.909 305.209 236.206L292.28 258.582C284.305 272.389 272.84 283.856 259.036 291.835L236.649 304.754C225.353 311.3 215.972 320.696 209.445 332.003C202.918 343.31 199.472 356.132 199.453 369.188V395.036C199.444 410.977 195.248 426.637 187.284 440.447L174.354 462.832C167.844 474.149 164.417 486.977 164.417 500.033C164.417 513.089 167.844 525.916 174.354 537.233L187.284 559.619C195.248 573.429 199.444 589.088 199.453 605.03V630.838C199.472 643.893 202.918 656.715 209.445 668.023C215.972 679.33 225.353 688.726 236.649 695.272L259.036 708.191C272.84 716.169 284.305 727.637 292.28 741.444L305.209 763.819C311.753 775.118 321.148 784.502 332.456 791.031C343.764 797.56 356.588 801.006 369.645 801.025H395.484C411.43 801.031 427.093 805.228 440.907 813.193L463.283 826.112C474.602 832.622 487.432 836.049 500.49 836.049C513.548 836.049 526.378 832.622 537.697 826.112L560.053 813.233C573.863 805.268 589.523 801.072 605.466 801.065H631.304C644.363 801.045 657.188 797.598 668.497 791.069C679.806 784.54 689.204 775.158 695.751 763.859L708.67 741.484C716.649 727.68 728.113 716.214 741.914 708.231L764.3 695.312C775.609 688.767 785.001 679.366 791.536 668.051C798.071 656.736 801.52 643.904 801.537 630.838V605.03C801.541 589.088 805.737 573.427 813.706 559.619L826.625 537.233ZM512.859 572.958L552.828 442.618C553.186 441.389 553.811 440.255 554.659 439.296C555.131 438.842 555.692 438.493 556.308 438.27C556.923 438.048 557.579 437.958 558.232 438.005H569.24C569.892 437.958 570.548 438.048 571.163 438.27C571.779 438.493 572.341 438.842 572.812 439.296C573.65 440.258 574.275 441.387 574.643 442.608L614.432 572.908C614.639 573.651 614.75 574.418 614.762 575.189C614.794 576.277 614.44 577.34 613.762 578.191C613.483 578.588 613.115 578.914 612.688 579.141C612.26 579.369 611.784 579.493 611.3 579.502H603.084C602.514 579.543 601.942 579.444 601.419 579.214C600.896 578.984 600.437 578.629 600.082 578.181C599.549 577.493 599.134 576.723 598.851 575.9L590.975 550.482C590.705 549.611 590.163 548.849 589.428 548.309C588.693 547.768 587.805 547.478 586.892 547.48H540.619C539.708 547.479 538.821 547.769 538.087 548.31C537.354 548.85 536.814 549.612 536.546 550.482L528.67 575.9C528.486 576.753 528.083 577.543 527.499 578.191C527.123 578.637 526.647 578.988 526.11 579.215C525.572 579.443 524.989 579.541 524.407 579.502H516.191C515.707 579.493 515.231 579.369 514.804 579.141C514.376 578.914 514.008 578.588 513.729 578.191C513.052 577.34 512.697 576.277 512.729 575.189C512.728 574.444 512.772 573.698 512.859 572.958ZM399.197 496.105L433.742 439.866C434.573 438.517 435.736 437.403 437.12 436.631C438.504 435.858 440.063 435.452 441.647 435.452C443.232 435.452 444.791 435.858 446.175 436.631C447.558 437.403 448.722 438.517 449.553 439.866L484.168 496.205C485.848 498.942 486.762 502.08 486.813 505.292C486.864 508.503 486.051 511.669 484.458 514.458L450.164 574.499C449.363 575.917 448.199 577.097 446.793 577.918C445.386 578.739 443.787 579.172 442.158 579.172H442.108C440.487 579.18 438.893 578.759 437.487 577.953C436.081 577.146 434.913 575.982 434.102 574.579L398.997 514.538C397.351 511.737 396.5 508.541 396.535 505.294C396.57 502.046 397.491 498.869 399.197 496.105ZM303.758 524.505C302.785 524.507 301.852 524.895 301.164 525.583C300.476 526.271 300.088 527.204 300.085 528.177V574.589C300.129 575.842 299.741 577.072 298.984 578.071C298.63 578.526 298.173 578.89 297.652 579.135C297.13 579.38 296.558 579.499 295.982 579.482H287.446C286.876 579.507 286.31 579.39 285.796 579.142C285.283 578.894 284.839 578.523 284.504 578.061C283.805 577.042 283.454 575.824 283.503 574.589V451.184C283.509 447.69 284.899 444.341 287.369 441.871C289.84 439.401 293.189 438.01 296.683 438.005H328.386C336.391 438.005 343.396 439.646 349.211 442.868C355.156 446.188 359.938 451.253 362.911 457.378C366.133 463.763 367.774 471.828 367.774 481.395C367.774 490.962 366.133 498.977 362.911 505.271C359.912 511.36 355.125 516.388 349.191 519.681C343.336 522.913 336.321 524.545 328.366 524.545L303.758 524.505ZM726.973 505.231C723.975 511.32 719.188 516.348 713.254 519.641C707.389 522.873 700.384 524.505 692.429 524.505H667.841C666.868 524.507 665.935 524.895 665.247 525.583C664.559 526.271 664.171 527.204 664.168 528.177V574.589C664.212 575.842 663.824 577.072 663.067 578.071C662.712 578.525 662.255 578.889 661.734 579.134C661.213 579.379 660.641 579.498 660.065 579.482H651.529C650.958 579.506 650.39 579.388 649.875 579.141C649.361 578.893 648.915 578.522 648.577 578.061C647.876 577.043 647.525 575.824 647.576 574.589V451.184C647.581 447.696 648.968 444.351 651.432 441.882C653.896 439.412 657.237 438.018 660.726 438.005H692.429C700.434 438.005 707.439 439.646 713.254 442.868C719.206 446.185 723.995 451.25 726.973 457.378C730.196 463.763 731.827 471.828 731.827 481.395C731.827 490.962 730.176 498.927 726.973 505.231Z" fill="white"/>
</mask>
<g mask="url(#mask1_4_167)">
<path d="M479.458 405.546C481.716 409.45 484.965 412.689 488.877 414.933C492.789 417.178 497.225 418.349 501.735 418.327H501.874C506.406 418.326 510.857 417.122 514.771 414.837C518.685 412.552 521.922 409.269 524.151 405.323L619.58 238.252C624.011 230.491 626.274 221.682 626.132 212.746C625.99 203.811 623.448 195.078 618.773 187.462L522.453 30.6935C520.139 26.9393 516.902 23.8397 513.052 21.6898C509.201 19.54 504.864 18.4113 500.454 18.4113C496.044 18.4113 491.707 19.54 487.857 21.6898C484.006 23.8397 480.77 26.9393 478.456 30.6935L382.331 187.184C377.599 194.865 375.048 203.689 374.949 212.71C374.851 221.731 377.21 230.609 381.774 238.391L479.458 405.546ZM507.304 98.1346L576.92 211.298C577.643 212.515 578.025 213.905 578.025 215.321C578.025 216.737 577.643 218.127 576.92 219.345L508.223 339.581C507.531 340.777 506.537 341.771 505.339 342.462C504.142 343.153 502.783 343.517 501.401 343.517C500.018 343.517 498.66 343.153 497.463 342.462C496.265 341.771 495.271 340.777 494.579 339.581L424.239 219.317C423.508 218.092 423.122 216.692 423.122 215.266C423.122 213.839 423.508 212.439 424.239 211.214L493.855 98.0789C494.574 96.9607 495.563 96.0419 496.732 95.4074C497.9 94.7729 499.21 94.4431 500.539 94.4487C501.869 94.4542 503.175 94.7949 504.338 95.4392C505.501 96.0834 506.483 97.0105 507.193 98.1346H507.304Z" fill="#5C5AA0"/>
<path d="M493.743 98.1346L424.128 211.27C423.397 212.495 423.011 213.895 423.011 215.321C423.011 216.748 423.397 218.148 424.128 219.373L494.467 339.636C495.159 340.833 496.154 341.827 497.351 342.518C498.549 343.209 499.907 343.572 501.29 343.572C502.672 343.572 504.03 343.209 505.228 342.518C506.425 341.827 507.42 340.833 508.112 339.636L576.808 219.401C577.532 218.183 577.913 216.793 577.913 215.377C577.913 213.961 577.532 212.571 576.808 211.353L507.193 98.1903C506.489 97.0417 505.503 96.0921 504.329 95.4315C503.154 94.7709 501.831 94.4213 500.484 94.4157C499.136 94.4101 497.81 94.7488 496.63 95.3996C495.451 96.0505 494.457 96.9919 493.743 98.1346Z" fill="white"/>
<rect x="372.162" y="18.4113" width="256.185" height="200.486" fill="white"/>
</g>
<path d="M954.625 601.233C961.136 589.916 964.563 577.089 964.563 564.033C964.563 550.977 961.136 538.149 954.625 526.832L941.706 504.447C933.737 490.639 929.541 474.978 929.537 459.036V433.188C929.516 420.131 926.068 407.309 919.539 396.002C913.01 384.695 903.628 375.299 892.33 368.754L869.944 355.835C856.143 347.852 844.679 336.385 836.7 322.582L823.781 300.206C817.233 288.909 807.835 279.528 796.526 272.999C785.217 266.47 772.393 263.023 759.334 263.001H733.496C717.544 262.995 701.873 258.799 688.053 250.832L665.677 237.914C654.358 231.403 641.528 227.977 628.47 227.977C615.412 227.977 602.582 231.403 591.263 237.914L568.907 250.832C555.094 258.798 539.43 262.994 523.484 263.001H497.645C484.588 263.021 471.765 266.468 460.458 272.997C449.15 279.526 439.754 288.909 433.209 300.206L420.28 322.582C412.305 336.388 400.84 347.856 387.036 355.835L364.649 368.754C353.353 375.3 343.972 384.696 337.445 396.003C330.918 407.31 327.472 420.132 327.453 433.188V459.036C327.444 474.977 323.248 490.637 315.284 504.447L302.354 526.832C295.844 538.149 292.417 550.977 292.417 564.033C292.417 577.089 295.844 589.916 302.354 601.233L315.284 623.619C323.248 637.429 327.444 653.088 327.453 669.03V694.838C327.472 707.893 330.918 720.715 337.445 732.022C343.972 743.33 353.353 752.726 364.649 759.272L387.036 772.191C400.84 780.169 412.305 791.637 420.28 805.444L433.209 827.819C439.753 839.118 449.148 848.502 460.456 855.031C471.764 861.56 484.588 865.006 497.645 865.025H523.484C539.43 865.031 555.094 869.228 568.907 877.193L591.283 890.112C602.602 896.622 615.432 900.049 628.49 900.049C641.548 900.049 654.378 896.622 665.697 890.112L688.053 877.233C701.863 869.268 717.523 865.072 733.466 865.065H759.304C772.363 865.045 785.188 861.598 796.497 855.069C807.806 848.54 817.204 839.158 823.751 827.859L836.67 805.484C844.649 791.68 856.113 780.214 869.914 772.231L892.3 759.312C903.609 752.767 913.001 743.366 919.536 732.051C926.071 720.736 929.52 707.904 929.537 694.838V669.03C929.541 653.088 933.737 637.427 941.706 623.619L954.625 601.233ZM640.859 636.958L680.828 506.618C681.186 505.389 681.811 504.255 682.659 503.296C683.131 502.842 683.692 502.493 684.308 502.27C684.923 502.048 685.579 501.958 686.232 502.005H697.24C697.892 501.958 698.548 502.048 699.163 502.27C699.779 502.493 700.341 502.842 700.812 503.296C701.65 504.258 702.275 505.387 702.643 506.608L742.432 636.908C742.639 637.651 742.75 638.418 742.762 639.189C742.794 640.277 742.44 641.34 741.762 642.191C741.483 642.588 741.115 642.913 740.688 643.141C740.26 643.369 739.784 643.493 739.3 643.502H731.084C730.514 643.543 729.942 643.444 729.419 643.214C728.896 642.984 728.437 642.629 728.082 642.181C727.549 641.493 727.134 640.723 726.851 639.9L718.975 614.482C718.705 613.611 718.163 612.849 717.428 612.309C716.693 611.768 715.805 611.478 714.892 611.48H668.619C667.708 611.479 666.821 611.769 666.087 612.31C665.354 612.85 664.814 613.612 664.546 614.482L656.67 639.9C656.486 640.753 656.083 641.543 655.499 642.191C655.123 642.637 654.647 642.988 654.11 643.215C653.572 643.443 652.989 643.541 652.407 643.502H644.191C643.707 643.493 643.231 643.369 642.804 643.141C642.376 642.913 642.008 642.588 641.73 642.191C641.052 641.34 640.697 640.277 640.729 639.189C640.728 638.444 640.772 637.698 640.859 636.958ZM527.197 560.105L561.742 503.866C562.573 502.517 563.736 501.403 565.12 500.631C566.504 499.858 568.063 499.452 569.647 499.452C571.232 499.452 572.791 499.858 574.175 500.631C575.559 501.403 576.722 502.517 577.553 503.866L612.168 560.205C613.848 562.942 614.762 566.08 614.813 569.292C614.864 572.503 614.051 575.669 612.458 578.458L578.164 638.499C577.363 639.917 576.199 641.097 574.793 641.918C573.386 642.739 571.787 643.172 570.158 643.172H570.108C568.487 643.18 566.893 642.759 565.487 641.953C564.081 641.146 562.913 639.982 562.102 638.579L526.997 578.538C525.351 575.737 524.5 572.541 524.535 569.294C524.57 566.046 525.491 562.869 527.197 560.105ZM431.758 588.505C430.785 588.507 429.852 588.895 429.164 589.583C428.476 590.271 428.088 591.204 428.085 592.177V638.589C428.129 639.842 427.741 641.072 426.984 642.071C426.63 642.526 426.173 642.89 425.652 643.135C425.13 643.38 424.558 643.499 423.982 643.482H415.446C414.876 643.507 414.31 643.39 413.796 643.142C413.283 642.894 412.839 642.523 412.504 642.061C411.805 641.042 411.454 639.824 411.503 638.589V515.184C411.509 511.69 412.899 508.341 415.369 505.871C417.84 503.401 421.189 502.01 424.683 502.005H456.386C464.391 502.005 471.397 503.646 477.211 506.868C483.156 510.188 487.938 515.253 490.911 521.378C494.133 527.763 495.774 535.828 495.774 545.395C495.774 554.961 494.133 562.977 490.911 569.271C487.912 575.36 483.125 580.388 477.191 583.681C471.336 586.913 464.321 588.545 456.366 588.545L431.758 588.505ZM854.973 569.231C851.975 575.32 847.188 580.348 841.254 583.641C835.389 586.873 828.384 588.505 820.429 588.505H795.841C794.868 588.507 793.935 588.895 793.247 589.583C792.559 590.271 792.171 591.204 792.168 592.177V638.589C792.212 639.842 791.824 641.072 791.067 642.071C790.712 642.525 790.256 642.889 789.734 643.134C789.213 643.379 788.641 643.498 788.065 643.482H779.529C778.958 643.506 778.39 643.388 777.875 643.141C777.361 642.893 776.915 642.522 776.577 642.061C775.876 641.043 775.525 639.824 775.576 638.589V515.184C775.581 511.696 776.968 508.351 779.432 505.882C781.896 503.412 785.237 502.018 788.726 502.005H820.429C828.434 502.005 835.439 503.646 841.254 506.868C847.206 510.185 851.995 515.25 854.973 521.378C858.196 527.763 859.827 535.828 859.827 545.395C859.827 554.961 858.176 562.927 854.973 569.231Z" fill="white"/>
<path d="M795.851 571.083H819.618C827.454 571.083 833.398 568.871 837.311 564.518C841.224 560.165 843.165 553.741 843.165 545.355C843.165 536.969 841.234 530.685 837.431 526.202C833.628 521.719 827.624 519.437 819.578 519.437H795.851C794.832 519.44 793.857 519.845 793.136 520.565C792.416 521.286 792.011 522.261 792.008 523.28V567.23C792.008 568.25 792.413 569.228 793.133 569.951C793.853 570.673 794.831 571.08 795.851 571.083Z" fill="white"/>
<path d="M455.535 519.437H431.768C430.75 519.44 429.774 519.845 429.054 520.565C428.333 521.286 427.928 522.261 427.925 523.28V567.23C427.925 568.25 428.33 569.228 429.05 569.951C429.77 570.673 430.748 571.08 431.768 571.083H455.535C463.361 571.083 469.315 568.871 473.228 564.518C477.141 560.165 479.132 553.701 479.132 545.355C479.132 537.009 477.201 530.685 473.388 526.202C469.575 521.719 463.581 519.437 455.535 519.437Z" fill="white"/>
<path d="M672.442 593.628H710.97C711.217 593.631 711.462 593.574 711.683 593.462C711.904 593.351 712.095 593.188 712.24 592.988C712.387 592.789 712.486 592.56 712.53 592.317C712.573 592.074 712.56 591.824 712.491 591.587L693.227 528.263C693.122 527.948 692.921 527.673 692.651 527.478C692.382 527.284 692.058 527.179 691.726 527.179C691.393 527.179 691.069 527.284 690.8 527.478C690.53 527.673 690.329 527.948 690.224 528.263L670.951 591.587C670.886 591.82 670.876 592.066 670.922 592.304C670.967 592.542 671.067 592.766 671.213 592.96C671.359 593.153 671.548 593.31 671.764 593.419C671.981 593.528 672.219 593.586 672.462 593.588L672.442 593.628Z" fill="white"/>
<path d="M968.846 518.616L955.926 496.241C949.386 484.931 945.935 472.1 945.919 459.036V433.188C945.894 417.249 941.685 401.596 933.714 387.794C925.743 373.991 914.289 362.522 900.496 354.534L878.19 341.595C866.879 335.065 857.485 325.675 850.951 314.366L838.031 291.981C830.04 278.189 818.569 266.736 804.764 258.767C790.959 250.798 775.305 246.592 759.365 246.57H733.496C720.431 246.551 707.601 243.1 696.289 236.563L673.913 223.634C660.096 215.684 644.435 211.5 628.495 211.5C612.555 211.5 596.894 215.684 583.077 223.634L560.691 236.563C549.38 243.101 536.549 246.551 523.484 246.57H497.645C481.706 246.592 466.051 250.798 452.246 258.767C438.441 266.736 426.97 278.189 418.979 291.981L406.059 314.376C399.527 325.68 390.136 335.067 378.83 341.595L356.454 354.524C342.661 362.512 331.207 373.981 323.236 387.784C315.265 401.586 311.056 417.239 311.031 433.178V459.026C311.015 472.09 307.564 484.921 301.023 496.231L288.134 518.616C280.184 532.432 276 548.093 276 564.033C276 579.972 280.184 595.633 288.134 609.449L301.053 631.794C307.594 643.104 311.045 655.935 311.061 669V694.838C311.089 710.777 315.299 726.43 323.27 740.234C331.24 754.037 342.693 765.508 356.484 773.502L378.83 786.461C390.141 792.99 399.535 802.381 406.069 813.689L418.989 836.075C427.101 850.083 438.801 861.675 452.883 869.658C454.805 870.749 456.766 871.759 458.757 872.66C470.896 878.428 484.166 881.426 497.605 881.436H523.444C536.509 881.454 549.34 884.905 560.651 891.443L583.077 904.382C590.125 908.445 597.688 911.538 605.563 913.578C607.705 914.138 609.867 914.579 612.038 915.009C617.321 915.978 622.679 916.477 628.05 916.5H628.46H629.741C635.115 916.424 640.473 915.878 645.752 914.869C647.914 914.449 650.066 913.958 652.207 913.378C659.799 911.329 667.092 908.302 673.903 904.372L696.279 891.443C707.59 884.906 720.421 881.455 733.486 881.436H759.324C773.045 881.424 786.584 878.301 798.923 872.3C800.925 871.299 802.926 870.298 804.787 869.197C818.564 861.231 830.012 849.794 837.991 836.025L850.911 813.639C857.465 802.346 866.873 792.974 878.19 786.461L900.566 773.542C914.361 765.545 925.814 754.067 933.78 740.255C941.746 726.443 945.946 710.782 945.959 694.838V669.03C945.975 655.965 949.426 643.134 955.966 631.824L968.886 609.449C976.83 595.63 981.007 579.967 981 564.027C980.993 548.088 976.802 532.429 968.846 518.616ZM929.537 694.838C929.516 707.894 926.068 720.716 919.539 732.023C913.01 743.33 903.628 752.726 892.331 759.272L869.944 772.191C856.143 780.174 844.68 791.64 836.7 805.444L823.781 827.819C817.234 839.118 807.837 848.5 796.527 855.029C785.218 861.558 772.393 865.005 759.334 865.025H733.496C717.54 865.039 701.868 869.249 688.053 877.233L665.667 890.152C654.348 896.662 641.518 900.089 628.46 900.089C615.402 900.089 602.572 896.662 591.253 890.152L568.877 877.233C555.064 869.268 539.4 865.071 523.454 865.065H497.645C484.588 865.046 471.764 861.6 460.456 855.071C449.148 848.542 439.753 839.158 433.209 827.859L420.28 805.484C412.305 791.677 400.84 780.209 387.036 772.231L364.649 759.312C353.347 752.762 343.963 743.36 337.435 732.045C330.907 720.73 327.465 707.9 327.453 694.838V669.03C327.444 653.088 323.248 637.429 315.284 623.619L302.354 601.233C295.844 589.916 292.417 577.089 292.417 564.033C292.417 550.977 295.844 538.149 302.354 526.832L315.284 504.447C323.248 490.637 327.444 474.977 327.453 459.036V433.188C327.472 420.132 330.918 407.31 337.445 396.003C343.972 384.696 353.353 375.3 364.649 368.754L387.036 355.835C400.84 347.856 412.305 336.388 420.28 322.582L433.209 300.206C439.754 288.909 449.15 279.526 460.458 272.997C471.765 266.468 484.588 263.021 497.645 263.001H523.484C539.43 262.994 555.094 258.798 568.907 250.832L591.283 237.914C602.602 231.403 615.432 227.977 628.49 227.977C641.548 227.977 654.378 231.403 665.697 237.914L688.053 250.832C701.867 258.795 717.531 262.991 733.476 263.001H759.314C772.373 263.023 785.197 266.47 796.506 272.999C807.815 279.528 817.213 288.909 823.761 300.206L836.7 322.582C844.68 336.385 856.143 347.852 869.944 355.835L892.331 368.754C903.628 375.299 913.01 384.695 919.539 396.002C926.068 407.309 929.516 420.131 929.537 433.188V459.036C929.541 474.978 933.737 490.639 941.706 504.447L954.626 526.832C961.136 538.149 964.563 550.977 964.563 564.033C964.563 577.089 961.136 589.916 954.626 601.233L941.706 623.619C933.737 637.427 929.541 653.088 929.537 669.03V694.838Z" fill="#5C5AA0"/>
<path d="M477.171 583.641C483.113 580.351 487.907 575.323 490.911 569.231C494.133 562.937 495.774 554.901 495.774 545.355C495.774 535.808 494.133 527.763 490.911 521.338C487.932 515.21 483.143 510.145 477.191 506.828C471.336 503.606 464.321 501.965 456.366 501.965H424.643C421.149 501.97 417.8 503.361 415.329 505.831C412.859 508.301 411.468 511.65 411.463 515.144V638.589C411.414 639.824 411.765 641.042 412.464 642.061C412.799 642.523 413.243 642.894 413.756 643.142C414.27 643.39 414.836 643.507 415.406 643.482H423.942C424.518 643.499 425.09 643.38 425.612 643.135C426.133 642.89 426.59 642.526 426.944 642.071C427.701 641.072 428.089 639.842 428.045 638.589V592.177C428.048 591.204 428.436 590.271 429.124 589.583C429.812 588.895 430.745 588.507 431.718 588.505H456.306C464.301 588.505 471.316 586.873 477.171 583.641ZM479.172 545.355C479.172 553.701 477.171 560.155 473.268 564.518C469.365 568.881 463.401 571.083 455.575 571.083H431.768C430.748 571.08 429.77 570.673 429.05 569.951C428.33 569.228 427.925 568.25 427.925 567.23V523.28C427.928 522.261 428.333 521.286 429.054 520.565C429.774 519.845 430.75 519.44 431.768 519.437H455.535C463.541 519.437 469.595 521.709 473.388 526.202C477.181 530.695 479.132 537.129 479.132 545.355H479.172Z" fill="#5C5AA0"/>
<path d="M644.191 643.482H652.407C652.989 643.521 653.572 643.423 654.11 643.195C654.647 642.968 655.123 642.617 655.499 642.171C656.083 641.523 656.486 640.733 656.67 639.88L664.546 614.462C664.814 613.592 665.354 612.83 666.087 612.29C666.821 611.749 667.708 611.459 668.619 611.46H714.792C715.704 611.458 716.593 611.748 717.328 612.289C718.063 612.829 718.605 613.591 718.875 614.462L726.751 639.88C727.033 640.703 727.449 641.473 727.982 642.161C728.337 642.609 728.796 642.964 729.319 643.194C729.842 643.424 730.414 643.523 730.984 643.482H739.2C739.684 643.473 740.16 643.349 740.588 643.121C741.015 642.893 741.383 642.568 741.662 642.171C742.34 641.32 742.694 640.257 742.662 639.169C742.65 638.398 742.539 637.631 742.332 636.888L702.593 506.608C702.225 505.387 701.6 504.258 700.762 503.296C700.291 502.842 699.729 502.493 699.113 502.27C698.498 502.048 697.842 501.958 697.19 502.005H686.182C685.529 501.958 684.873 502.048 684.258 502.27C683.642 502.493 683.081 502.842 682.609 503.296C681.761 504.255 681.136 505.389 680.778 506.618L640.859 636.958C640.765 637.698 640.715 638.443 640.709 639.189C640.677 640.277 641.032 641.34 641.709 642.191C641.992 642.587 642.364 642.91 642.795 643.135C643.227 643.359 643.705 643.478 644.191 643.482ZM670.931 591.587L690.205 528.263C690.309 527.948 690.51 527.673 690.78 527.478C691.049 527.284 691.373 527.179 691.706 527.179C692.038 527.179 692.362 527.284 692.631 527.478C692.901 527.673 693.102 527.948 693.207 528.263L712.471 591.587C712.54 591.824 712.553 592.073 712.51 592.316C712.466 592.56 712.367 592.789 712.22 592.988C712.075 593.188 711.884 593.351 711.663 593.462C711.442 593.574 711.197 593.63 710.949 593.628H672.442C672.199 593.626 671.961 593.568 671.744 593.459C671.528 593.35 671.339 593.193 671.193 593C671.047 592.806 670.947 592.582 670.902 592.344C670.856 592.106 670.866 591.86 670.931 591.627V591.587Z" fill="#5C5AA0"/>
<path d="M562.102 638.549C562.913 639.952 564.081 641.116 565.487 641.923C566.893 642.729 568.487 643.15 570.108 643.142H570.158C571.787 643.142 573.386 642.709 574.793 641.888C576.199 641.067 577.363 639.887 578.164 638.469L612.458 578.428C614.051 575.639 614.864 572.473 614.813 569.262C614.762 566.05 613.848 562.912 612.168 560.175L577.553 503.836C576.722 502.487 575.559 501.373 574.175 500.601C572.791 499.828 571.232 499.422 569.647 499.422C568.063 499.422 566.504 499.828 565.12 500.601C563.736 501.373 562.573 502.487 561.742 503.836L527.197 560.075C525.496 562.835 524.579 566.007 524.544 569.249C524.509 572.49 525.357 575.681 526.997 578.478L562.102 638.549ZM572.109 528.073L597.127 568.741C597.387 569.179 597.524 569.678 597.524 570.187C597.524 570.696 597.387 571.195 597.127 571.633L572.439 614.843C572.191 615.273 571.833 615.63 571.403 615.878C570.973 616.126 570.485 616.257 569.988 616.257C569.491 616.257 569.003 616.126 568.572 615.878C568.142 615.63 567.785 615.273 567.536 614.843L542.258 571.623C541.995 571.183 541.856 570.68 541.856 570.167C541.856 569.654 541.995 569.151 542.258 568.711L567.276 528.053C567.534 527.651 567.89 527.321 568.31 527.093C568.73 526.865 569.2 526.746 569.678 526.748C570.156 526.75 570.625 526.873 571.043 527.104C571.461 527.336 571.814 527.669 572.069 528.073H572.109Z" fill="#5C5AA0"/>
<path d="M567.236 528.073L542.218 568.731C541.955 569.171 541.816 569.674 541.816 570.187C541.816 570.7 541.955 571.203 542.218 571.643L567.496 614.863C567.745 615.293 568.102 615.65 568.532 615.898C568.963 616.146 569.451 616.277 569.948 616.277C570.445 616.277 570.933 616.146 571.363 615.898C571.793 615.65 572.151 615.293 572.399 614.863L597.087 571.653C597.347 571.215 597.484 570.716 597.484 570.207C597.484 569.698 597.347 569.199 597.087 568.761L572.069 528.093C571.816 527.68 571.462 527.339 571.04 527.102C570.618 526.864 570.142 526.739 569.658 526.737C569.174 526.735 568.697 526.856 568.273 527.09C567.849 527.324 567.492 527.662 567.236 528.073Z" fill="white"/>
<path d="M841.254 506.868C835.389 503.646 828.384 502.005 820.429 502.005H788.726C785.232 502.01 781.883 503.401 779.412 505.871C776.942 508.341 775.551 511.69 775.546 515.184V638.589C775.495 639.824 775.846 641.043 776.547 642.061C776.885 642.522 777.331 642.893 777.845 643.141C778.36 643.389 778.928 643.506 779.499 643.482H788.035C788.611 643.498 789.183 643.379 789.704 643.134C790.226 642.889 790.682 642.525 791.037 642.071C791.794 641.072 792.182 639.842 792.138 638.589V592.177C792.141 591.204 792.529 590.271 793.217 589.583C793.905 588.895 794.838 588.507 795.811 588.505H820.399C828.404 588.505 835.409 586.873 841.224 583.641C847.158 580.348 851.945 575.32 854.944 569.231C858.166 562.927 859.797 554.891 859.797 545.355C859.797 535.818 858.166 527.763 854.944 521.338C851.967 515.229 847.189 510.179 841.254 506.868ZM792.008 523.28C792.011 522.261 792.416 521.286 793.137 520.565C793.857 519.845 794.832 519.44 795.851 519.437H819.618C827.624 519.437 833.628 521.709 837.471 526.202C841.314 530.695 843.165 537.129 843.165 545.355C843.165 553.581 841.164 560.155 837.271 564.518C833.378 568.881 827.414 571.083 819.578 571.083H795.851C794.831 571.08 793.853 570.673 793.133 569.951C792.413 569.228 792.008 568.25 792.008 567.23V523.28Z" fill="#5C5AA0"/>
<mask id="mask2_4_167" style="mask-type:alpha" maskUnits="userSpaceOnUse" x="292" y="227" width="673" height="674">
<path d="M954.625 601.233C961.136 589.916 964.563 577.089 964.563 564.033C964.563 550.977 961.136 538.149 954.625 526.832L941.706 504.447C933.737 490.639 929.541 474.978 929.537 459.036V433.188C929.516 420.131 926.068 407.309 919.539 396.002C913.01 384.695 903.628 375.299 892.33 368.754L869.944 355.835C856.143 347.852 844.679 336.385 836.7 322.582L823.781 300.206C817.233 288.909 807.835 279.528 796.526 272.999C785.217 266.47 772.393 263.023 759.334 263.001H733.496C717.544 262.995 701.873 258.799 688.053 250.832L665.677 237.914C654.358 231.403 641.528 227.977 628.47 227.977C615.412 227.977 602.582 231.403 591.263 237.914L568.907 250.832C555.093 258.798 539.43 262.994 523.484 263.001H497.645C484.588 263.021 471.765 266.468 460.458 272.997C449.15 279.526 439.754 288.909 433.209 300.206L420.28 322.582C412.305 336.389 400.84 347.856 387.036 355.835L364.649 368.754C353.353 375.3 343.972 384.696 337.445 396.003C330.918 407.31 327.472 420.132 327.453 433.188V459.036C327.444 474.977 323.248 490.637 315.284 504.447L302.354 526.832C295.844 538.149 292.417 550.977 292.417 564.033C292.417 577.089 295.844 589.916 302.354 601.233L315.284 623.619C323.248 637.429 327.444 653.088 327.453 669.03V694.838C327.472 707.893 330.918 720.715 337.445 732.023C343.972 743.33 353.353 752.726 364.649 759.272L387.036 772.191C400.84 780.169 412.305 791.637 420.28 805.444L433.209 827.819C439.753 839.118 449.148 848.502 460.456 855.031C471.764 861.56 484.588 865.006 497.645 865.025H523.484C539.43 865.031 555.093 869.228 568.907 877.193L591.283 890.112C602.602 896.622 615.432 900.049 628.49 900.049C641.548 900.049 654.377 896.622 665.697 890.112L688.053 877.233C701.863 869.268 717.523 865.072 733.466 865.065H759.304C772.363 865.045 785.188 861.598 796.497 855.069C807.806 848.54 817.204 839.158 823.751 827.859L836.67 805.484C844.649 791.68 856.113 780.214 869.914 772.231L892.3 759.312C903.609 752.767 913.001 743.366 919.536 732.051C926.071 720.736 929.52 707.904 929.537 694.838V669.03C929.541 653.088 933.737 637.427 941.706 623.619L954.625 601.233ZM640.859 636.958L680.828 506.618C681.186 505.389 681.811 504.255 682.659 503.296C683.131 502.842 683.692 502.493 684.308 502.27C684.923 502.048 685.579 501.958 686.232 502.005H697.24C697.892 501.958 698.548 502.048 699.163 502.27C699.779 502.493 700.341 502.842 700.812 503.296C701.65 504.258 702.275 505.387 702.643 506.608L742.432 636.908C742.639 637.651 742.75 638.418 742.762 639.189C742.794 640.277 742.44 641.34 741.762 642.191C741.483 642.588 741.115 642.914 740.688 643.141C740.26 643.369 739.784 643.493 739.3 643.502H731.084C730.514 643.543 729.942 643.444 729.419 643.214C728.896 642.984 728.437 642.629 728.082 642.181C727.549 641.493 727.134 640.723 726.851 639.9L718.975 614.482C718.705 613.611 718.163 612.849 717.428 612.309C716.693 611.768 715.805 611.478 714.892 611.48H668.619C667.708 611.479 666.821 611.769 666.087 612.31C665.354 612.85 664.814 613.612 664.546 614.482L656.67 639.9C656.486 640.753 656.083 641.543 655.499 642.191C655.123 642.637 654.647 642.988 654.11 643.215C653.572 643.443 652.989 643.541 652.407 643.502H644.191C643.707 643.493 643.231 643.369 642.804 643.141C642.376 642.914 642.008 642.588 641.729 642.191C641.052 641.34 640.697 640.277 640.729 639.189C640.728 638.444 640.772 637.698 640.859 636.958ZM527.197 560.105L561.742 503.866C562.573 502.517 563.736 501.403 565.12 500.631C566.504 499.858 568.062 499.452 569.647 499.452C571.232 499.452 572.791 499.858 574.175 500.631C575.558 501.403 576.722 502.517 577.553 503.866L612.168 560.205C613.848 562.942 614.762 566.08 614.813 569.292C614.864 572.503 614.051 575.669 612.458 578.458L578.164 638.499C577.362 639.917 576.199 641.097 574.793 641.918C573.386 642.739 571.787 643.172 570.158 643.172H570.108C568.487 643.18 566.893 642.759 565.487 641.953C564.081 641.146 562.913 639.982 562.102 638.579L526.997 578.538C525.351 575.737 524.5 572.541 524.535 569.294C524.57 566.046 525.491 562.869 527.197 560.105ZM431.758 588.505C430.785 588.507 429.852 588.895 429.164 589.583C428.476 590.271 428.088 591.204 428.085 592.177V638.589C428.129 639.842 427.741 641.072 426.984 642.071C426.63 642.526 426.173 642.89 425.652 643.135C425.13 643.38 424.558 643.499 423.982 643.482H415.446C414.876 643.507 414.31 643.39 413.796 643.142C413.283 642.894 412.839 642.523 412.504 642.061C411.805 641.042 411.454 639.824 411.503 638.589V515.184C411.509 511.69 412.899 508.341 415.369 505.871C417.84 503.401 421.189 502.01 424.683 502.005H456.386C464.391 502.005 471.396 503.646 477.211 506.868C483.156 510.188 487.938 515.253 490.911 521.378C494.133 527.763 495.774 535.828 495.774 545.395C495.774 554.962 494.133 562.977 490.911 569.271C487.912 575.36 483.125 580.388 477.191 583.681C471.336 586.913 464.321 588.545 456.366 588.545L431.758 588.505ZM854.973 569.231C851.975 575.32 847.188 580.348 841.254 583.641C835.389 586.873 828.384 588.505 820.429 588.505H795.841C794.868 588.507 793.935 588.895 793.247 589.583C792.559 590.271 792.171 591.204 792.168 592.177V638.589C792.212 639.842 791.824 641.072 791.067 642.071C790.712 642.525 790.255 642.889 789.734 643.134C789.213 643.379 788.641 643.498 788.065 643.482H779.529C778.958 643.506 778.39 643.388 777.875 643.141C777.361 642.893 776.915 642.522 776.577 642.061C775.876 641.043 775.525 639.824 775.576 638.589V515.184C775.581 511.696 776.968 508.351 779.432 505.882C781.896 503.412 785.237 502.018 788.726 502.005H820.429C828.434 502.005 835.439 503.646 841.254 506.868C847.206 510.185 851.995 515.25 854.973 521.378C858.196 527.763 859.827 535.828 859.827 545.395C859.827 554.962 858.176 562.927 854.973 569.231Z" fill="white"/>
</mask>
<g mask="url(#mask2_4_167)">
<path d="M607.458 469.546C609.716 473.45 612.965 476.689 616.877 478.933C620.789 481.178 625.225 482.349 629.735 482.327H629.874C634.406 482.326 638.857 481.122 642.771 478.837C646.685 476.552 649.922 473.269 652.151 469.323L747.58 302.252C752.011 294.491 754.274 285.682 754.132 276.746C753.99 267.811 751.448 259.078 746.773 251.462L650.453 94.6935C648.139 90.9393 644.902 87.8397 641.052 85.6898C637.201 83.54 632.864 82.4113 628.454 82.4113C624.044 82.4113 619.707 83.54 615.857 85.6898C612.006 87.8397 608.77 90.9393 606.456 94.6935L510.331 251.184C505.599 258.865 503.048 267.689 502.949 276.71C502.851 285.731 505.21 294.609 509.774 302.391L607.458 469.546ZM635.304 162.135L704.92 275.298C705.643 276.515 706.025 277.905 706.025 279.321C706.025 280.737 705.643 282.127 704.92 283.345L636.223 403.581C635.531 404.777 634.537 405.771 633.339 406.462C632.142 407.153 630.783 407.517 629.401 407.517C628.018 407.517 626.66 407.153 625.463 406.462C624.265 405.771 623.271 404.777 622.579 403.581L552.239 283.317C551.508 282.092 551.122 280.692 551.122 279.266C551.122 277.839 551.508 276.439 552.239 275.214L621.855 162.079C622.574 160.961 623.563 160.042 624.732 159.407C625.9 158.773 627.21 158.443 628.539 158.449C629.869 158.454 631.175 158.795 632.338 159.439C633.501 160.083 634.483 161.01 635.193 162.135H635.304Z" fill="#5C5AA0"/>
<path d="M621.743 162.135L552.128 275.27C551.397 276.495 551.011 277.895 551.011 279.321C551.011 280.748 551.397 282.148 552.128 283.373L622.467 403.636C623.159 404.833 624.154 405.827 625.351 406.518C626.549 407.209 627.907 407.572 629.29 407.572C630.672 407.572 632.03 407.209 633.228 406.518C634.425 405.827 635.42 404.833 636.112 403.636L704.808 283.401C705.532 282.183 705.913 280.793 705.913 279.377C705.913 277.961 705.532 276.571 704.808 275.353L635.193 162.19C634.489 161.042 633.503 160.092 632.329 159.432C631.154 158.771 629.831 158.421 628.484 158.416C627.136 158.41 625.81 158.749 624.63 159.4C623.451 160.05 622.457 160.992 621.743 162.135Z" fill="white"/>
<rect x="500.162" y="82.4113" width="256.185" height="200.486" fill="white"/>
</g>
</svg>
